<svg width="16" height="17" viewBox="0 0 16 17" fill="none" xmlns="http://www.w3.org/2000/svg">
<path d="M14.6467 12.3808C14.6467 12.6208 14.5933 12.8675 14.48 13.1075C14.3667 13.3475 14.22 13.5741 14.0267 13.7875C13.7 14.1475 13.34 14.4075 12.9333 14.5741C12.5333 14.7408 12.1 14.8275 11.6333 14.8275C10.9533 14.8275 10.2267 14.6675 9.46001 14.3408C8.69334 14.0141 7.92668 13.5741 7.16668 13.0208C6.40001 12.4608 5.67334 11.8408 4.98001 11.1541C4.29334 10.4608 3.67334 9.73414 3.12001 8.97414C2.57334 8.21414 2.13334 7.45414 1.81334 6.70081C1.49334 5.94081 1.33334 5.21414 1.33334 4.52081C1.33334 4.06747 1.41334 3.63414 1.57334 3.23414C1.73334 2.82747 1.98668 2.45414 2.34001 2.12081C2.76668 1.70081 3.23334 1.49414 3.72668 1.49414C3.91334 1.49414 4.10001 1.53414 4.26668 1.61414C4.44001 1.69414 4.59334 1.81414 4.71334 1.98747L6.26001 4.16747C6.38001 4.33414 6.46668 4.48747 6.52668 4.63414C6.58668 4.77414 6.62001 4.91414 6.62001 5.04081C6.62001 5.20081 6.57334 5.36081 6.48001 5.51414C6.39334 5.66747 6.26668 5.82747 6.10668 5.98747L5.60001 6.51414C5.52668 6.58747 5.49334 6.67414 5.49334 6.78081C5.49334 6.83414 5.50001 6.88081 5.51334 6.93414C5.53334 6.98747 5.55334 7.02747 5.56668 7.06747C5.68668 7.28747 5.89334 7.57414 6.18668 7.92081C6.48668 8.26747 6.80668 8.62081 7.15334 8.97414C7.51334 9.32747 7.86001 9.65414 8.21334 9.95414C8.56001 10.2475 8.84668 10.4475 9.07334 10.5675C9.10668 10.5808 9.14668 10.6008 9.19334 10.6208C9.24668 10.6408 9.30001 10.6475 9.36001 10.6475C9.47334 10.6475 9.56001 10.6075 9.63334 10.5341L10.14 10.0341C10.3067 9.86747 10.4667 9.74081 10.62 9.66081C10.7733 9.56747 10.9267 9.52081 11.0933 9.52081C11.22 9.52081 11.3533 9.54747 11.5 9.60747C11.6467 9.66747 11.8 9.75414 11.9667 9.86747L14.1733 11.4341C14.3467 11.5541 14.4667 11.6941 14.54 11.8608C14.6067 12.0275 14.6467 12.1941 14.6467 12.3808Z" stroke="white" stroke-opacity="0.8" stroke-width="1.5" stroke-miterlimit="10"/>
</svg>
