<svg width="40" height="40" viewBox="0 0 40 40" fill="none" xmlns="http://www.w3.org/2000/svg">
<rect x="0.5" y="0.5" width="39" height="39" rx="19.5" fill="#FEF6E8"/>
<rect x="0.5" y="0.5" width="39" height="39" rx="19.5" stroke="#E4E7EC"/>
<path d="M20.7654 11.8832L26.1904 14.8082C26.8237 15.1499 26.8237 16.1249 26.1904 16.4665L20.7654 19.3915C20.282 19.6499 19.7154 19.6499 19.232 19.3915L13.807 16.4665C13.1737 16.1249 13.1737 15.1499 13.807 14.8082L19.232 11.8832C19.7154 11.6249 20.282 11.6249 20.7654 11.8832Z" stroke="#292D32" stroke-width="1.5" stroke-linecap="round" stroke-linejoin="round"/>
<path d="M13.0096 18.4417L18.0513 20.9667C18.6763 21.2834 19.0763 21.9251 19.0763 22.6251V27.3917C19.0763 28.0834 18.3513 28.5251 17.7346 28.2167L12.693 25.6917C12.068 25.3751 11.668 24.7334 11.668 24.0334V19.2667C11.668 18.5751 12.393 18.1334 13.0096 18.4417Z" stroke="#292D32" stroke-width="1.5" stroke-linecap="round" stroke-linejoin="round"/>
<path d="M26.9924 18.4417L21.9508 20.9667C21.3258 21.2834 20.9258 21.9251 20.9258 22.6251V27.3917C20.9258 28.0834 21.6508 28.5251 22.2674 28.2167L27.3091 25.6917C27.9341 25.3751 28.3341 24.7334 28.3341 24.0334V19.2667C28.3341 18.5751 27.6091 18.1334 26.9924 18.4417Z" stroke="#292D32" stroke-width="1.5" stroke-linecap="round" stroke-linejoin="round"/>
</svg>
