<svg width="41" height="40" viewBox="0 0 41 40" fill="none" xmlns="http://www.w3.org/2000/svg">
<rect x="1" y="0.5" width="39" height="39" rx="19.5" fill="#FEF6E8"/>
<rect x="1" y="0.5" width="39" height="39" rx="19.5" stroke="#E4E7EC"/>
<path d="M28.832 15.0003V17.017C28.832 18.3337 27.9987 19.167 26.682 19.167H23.832V13.342C23.832 12.417 24.5904 11.667 25.5154 11.667C26.4237 11.6753 27.257 12.042 27.857 12.642C28.457 13.2503 28.832 14.0837 28.832 15.0003Z" stroke="#292D32" stroke-width="1.5" stroke-miterlimit="10" stroke-linecap="round" stroke-linejoin="round"/>
<path d="M12.168 15.8337V27.5003C12.168 28.192 12.9513 28.5837 13.5013 28.167L14.9263 27.1003C15.2596 26.8503 15.7263 26.8837 16.0263 27.1837L17.4096 28.5753C17.7346 28.9003 18.268 28.9003 18.593 28.5753L19.993 27.1753C20.2846 26.8837 20.7513 26.8503 21.0763 27.1003L22.5013 28.167C23.0513 28.5753 23.8346 28.1837 23.8346 27.5003V13.3337C23.8346 12.417 24.5846 11.667 25.5013 11.667H16.3346H15.5013C13.0013 11.667 12.168 13.1587 12.168 15.0003V15.8337Z" stroke="#292D32" stroke-width="1.5" stroke-miterlimit="10" stroke-linecap="round" stroke-linejoin="round"/>
<path d="M18 20.8418H20.5" stroke="#292D32" stroke-width="1.5" stroke-linecap="round" stroke-linejoin="round"/>
<path d="M18 17.5088H20.5" stroke="#292D32" stroke-width="1.5" stroke-linecap="round" stroke-linejoin="round"/>
<path d="M15.4961 20.833H15.5036" stroke="#292D32" stroke-width="2" stroke-linecap="round" stroke-linejoin="round"/>
<path d="M15.4961 17.5H15.5036" stroke="#292D32" stroke-width="2" stroke-linecap="round" stroke-linejoin="round"/>
</svg>
