<svg width="30" height="30" viewBox="0 0 30 30" fill="none" xmlns="http://www.w3.org/2000/svg">
<circle cx="15" cy="15" r="15" fill="#E7FBE8"/>
<path d="M15.0891 15.5849C15.0366 15.5774 14.9691 15.5774 14.9091 15.5849C13.5891 15.5399 12.5391 14.4599 12.5391 13.1324C12.5391 11.7749 13.6341 10.6724 14.9991 10.6724C16.3566 10.6724 17.4591 11.7749 17.4591 13.1324C17.4516 14.4599 16.4091 15.5399 15.0891 15.5849Z" stroke="#292D32" stroke-width="1.5" stroke-linecap="round" stroke-linejoin="round"/>
<path d="M20.0553 20.5349C18.7203 21.7574 16.9503 22.4999 15.0003 22.4999C13.0503 22.4999 11.2803 21.7574 9.94531 20.5349C10.0203 19.8299 10.4703 19.1399 11.2728 18.5999C13.3278 17.2349 16.6878 17.2349 18.7278 18.5999C19.5303 19.1399 19.9803 19.8299 20.0553 20.5349Z" stroke="#292D32" stroke-width="1.5" stroke-linecap="round" stroke-linejoin="round"/>
<path d="M15 22.5C19.1421 22.5 22.5 19.1421 22.5 15C22.5 10.8579 19.1421 7.5 15 7.5C10.8579 7.5 7.5 10.8579 7.5 15C7.5 19.1421 10.8579 22.5 15 22.5Z" stroke="#292D32" stroke-width="1.5" stroke-linecap="round" stroke-linejoin="round"/>
</svg>
