<svg width="30" height="30" viewBox="0 0 30 30" fill="none" xmlns="http://www.w3.org/2000/svg">
<circle cx="15" cy="15" r="15" fill="#F8F8F8"/>
<path d="M17.25 23.0625H12.75C9.4425 23.0625 8.4375 22.0575 8.4375 18.75V11.25C8.4375 7.9425 9.4425 6.9375 12.75 6.9375H17.25C20.5575 6.9375 21.5625 7.9425 21.5625 11.25V18.75C21.5625 22.0575 20.5575 23.0625 17.25 23.0625ZM12.75 8.0625C10.065 8.0625 9.5625 8.5725 9.5625 11.25V18.75C9.5625 21.4275 10.065 21.9375 12.75 21.9375H17.25C19.935 21.9375 20.4375 21.4275 20.4375 18.75V11.25C20.4375 8.5725 19.935 8.0625 17.25 8.0625H12.75Z" fill="#333333"/>
<path d="M16.5 10.6875H13.5C13.1925 10.6875 12.9375 10.4325 12.9375 10.125C12.9375 9.8175 13.1925 9.5625 13.5 9.5625H16.5C16.8075 9.5625 17.0625 9.8175 17.0625 10.125C17.0625 10.4325 16.8075 10.6875 16.5 10.6875Z" fill="#333333"/>
<path d="M15 20.8953C14.0475 20.8953 13.275 20.1228 13.275 19.1703C13.275 18.2178 14.0475 17.4453 15 17.4453C15.9525 17.4453 16.725 18.2178 16.725 19.1703C16.725 20.1228 15.9525 20.8953 15 20.8953ZM15 18.5628C14.67 18.5628 14.4 18.8328 14.4 19.1628C14.4 19.4928 14.67 19.7628 15 19.7628C15.33 19.7628 15.6 19.4928 15.6 19.1628C15.6 18.8328 15.33 18.5628 15 18.5628Z" fill="#333333"/>
</svg>
