<svg width="30" height="30" viewBox="0 0 30 30" fill="none" xmlns="http://www.w3.org/2000/svg">
<path d="M9.96003 2.42969H20.1664C24.0545 2.42969 27.2136 5.5888 27.2136 9.47694V19.6833C27.2136 21.5523 26.4712 23.3448 25.1495 24.6665C23.8279 25.9881 22.0354 26.7305 20.1664 26.7305H9.96003C6.07189 26.7305 2.91278 23.5714 2.91278 19.6833V9.47694C2.91278 7.60789 3.65526 5.81539 4.97687 4.49378C6.29849 3.17216 8.09098 2.42969 9.96003 2.42969ZM9.71702 4.85977C8.55692 4.85977 7.44434 5.32062 6.62403 6.14093C5.80371 6.96125 5.34287 8.07383 5.34287 9.23393V19.9263C5.34287 22.3442 7.29909 24.3005 9.71702 24.3005H20.4094C21.5695 24.3005 22.6821 23.8396 23.5024 23.0193C24.3227 22.199 24.7836 21.0864 24.7836 19.9263V9.23393C24.7836 6.81599 22.8273 4.85977 20.4094 4.85977H9.71702ZM21.4422 6.68234C21.845 6.68234 22.2313 6.84235 22.5161 7.12718C22.801 7.41202 22.961 7.79833 22.961 8.20114C22.961 8.60395 22.801 8.99027 22.5161 9.2751C22.2313 9.55993 21.845 9.71994 21.4422 9.71994C21.0394 9.71994 20.6531 9.55993 20.3682 9.2751C20.0834 8.99027 19.9234 8.60395 19.9234 8.20114C19.9234 7.79833 20.0834 7.41202 20.3682 7.12718C20.6531 6.84235 21.0394 6.68234 21.4422 6.68234ZM15.0632 8.5049C16.6745 8.5049 18.2197 9.14497 19.359 10.2843C20.4984 11.4236 21.1384 12.9689 21.1384 14.5801C21.1384 16.1914 20.4984 17.7366 19.359 18.8759C18.2197 20.0153 16.6745 20.6553 15.0632 20.6553C13.452 20.6553 11.9067 20.0153 10.7674 18.8759C9.62806 17.7366 8.988 16.1914 8.988 14.5801C8.988 12.9689 9.62806 11.4236 10.7674 10.2843C11.9067 9.14497 13.452 8.5049 15.0632 8.5049ZM15.0632 10.935C14.0965 10.935 13.1693 11.319 12.4857 12.0026C11.8021 12.6862 11.4181 13.6134 11.4181 14.5801C11.4181 15.5469 11.8021 16.474 12.4857 17.1576C13.1693 17.8412 14.0965 18.2252 15.0632 18.2252C16.03 18.2252 16.9571 17.8412 17.6407 17.1576C18.3243 16.474 18.7083 15.5469 18.7083 14.5801C18.7083 13.6134 18.3243 12.6862 17.6407 12.0026C16.9571 11.319 16.03 10.935 15.0632 10.935Z" fill="#E9E4DB"/>
</svg>
