<svg width="30" height="30" viewBox="0 0 30 30" fill="none" xmlns="http://www.w3.org/2000/svg">
<path d="M23.0891 3.64453C23.7336 3.64453 24.3517 3.90056 24.8074 4.35629C25.2632 4.81202 25.5192 5.43012 25.5192 6.07462V23.0852C25.5192 23.7297 25.2632 24.3478 24.8074 24.8035C24.3517 25.2593 23.7336 25.5153 23.0891 25.5153H6.07852C5.43402 25.5153 4.81592 25.2593 4.36019 24.8035C3.90446 24.3478 3.64844 23.7297 3.64844 23.0852V6.07462C3.64844 5.43012 3.90446 4.81202 4.36019 4.35629C4.81592 3.90056 5.43402 3.64453 6.07852 3.64453H23.0891ZM22.4816 22.4777V16.038C22.4816 14.9874 22.0643 13.9799 21.3214 13.2371C20.5786 12.4943 19.5711 12.0769 18.5206 12.0769C17.4878 12.0769 16.2849 12.7087 15.7017 13.6565V12.3078H12.3117V22.4777H15.7017V16.4875C15.7017 15.5519 16.455 14.7865 17.3906 14.7865C17.8417 14.7865 18.2744 14.9657 18.5934 15.2847C18.9124 15.6037 19.0916 16.0364 19.0916 16.4875V22.4777H22.4816ZM8.3628 10.4002C8.90418 10.4002 9.42339 10.1851 9.8062 9.80229C10.189 9.41948 10.4041 8.90028 10.4041 8.3589C10.4041 7.22891 9.49279 6.30547 8.3628 6.30547C7.8182 6.30547 7.29591 6.52182 6.91081 6.90691C6.52572 7.292 6.30938 7.8143 6.30938 8.3589C6.30938 9.48889 7.23281 10.4002 8.3628 10.4002ZM10.0517 22.4777V12.3078H6.68604V22.4777H10.0517Z" fill="#E9E4DB"/>
</svg>
