<svg width="16" height="17" viewBox="0 0 16 17" fill="none" xmlns="http://www.w3.org/2000/svg">
<path d="M3.90399 4.72105C3.82783 4.67998 3.74231 4.65937 3.6558 4.66125C3.56929 4.66313 3.48474 4.68743 3.41044 4.73177C3.33613 4.77611 3.2746 4.83898 3.23187 4.91423C3.18914 4.98947 3.16667 5.07452 3.16666 5.16105V11.4944C3.16666 11.627 3.21933 11.7542 3.3131 11.8479C3.40687 11.9417 3.53405 11.9944 3.66666 11.9944C3.79926 11.9944 3.92644 11.9417 4.02021 11.8479C4.11398 11.7542 4.16666 11.627 4.16666 11.4944V5.99838L7.76266 7.93438C7.91066 8.01438 8.08932 8.01438 8.23732 7.93438L11.8333 5.99838V11.4944C11.8333 11.627 11.886 11.7542 11.9798 11.8479C12.0735 11.9417 12.2007 11.9944 12.3333 11.9944C12.4659 11.9944 12.5931 11.9417 12.6869 11.8479C12.7806 11.7542 12.8333 11.627 12.8333 11.4944V5.16105C12.8333 5.07452 12.8108 4.98947 12.7681 4.91423C12.7254 4.83898 12.6638 4.77611 12.5895 4.73177C12.5152 4.68743 12.4307 4.66313 12.3442 4.66125C12.2577 4.65937 12.1722 4.67998 12.096 4.72105L7.99999 6.92638L3.90399 4.72105Z" fill="white" fill-opacity="0.8"/>
<path fill-rule="evenodd" clip-rule="evenodd" d="M11.54 2.6423C9.18469 2.43173 6.81529 2.43173 4.45999 2.6423L3.44799 2.7323C2.92085 2.77937 2.42496 3.00275 2.04042 3.36637C1.65587 3.72999 1.40512 4.21262 1.32866 4.7363C0.996608 7.00734 0.996608 9.31459 1.32866 11.5856C1.40529 12.1093 1.6562 12.5918 2.04086 12.9553C2.42553 13.3188 2.92149 13.5421 3.44866 13.589L4.45932 13.6796C6.81532 13.8903 9.18466 13.8903 11.5407 13.6796L12.552 13.589C13.079 13.5419 13.5748 13.3186 13.9594 12.9552C14.3439 12.5917 14.5947 12.1092 14.6713 11.5856C15.0034 9.31459 15.0034 7.00734 14.6713 4.7363C14.5948 4.21251 14.344 3.72981 13.9593 3.36618C13.5746 3.00255 13.0786 2.77923 12.5513 2.7323L11.5407 2.6423H11.54ZM4.54932 3.6383C6.84563 3.43299 9.15568 3.43299 11.452 3.6383L12.4633 3.72897C12.7665 3.75589 13.0518 3.88424 13.273 4.09327C13.4942 4.3023 13.6386 4.5798 13.6827 4.88097C14.0007 7.05607 14.0007 9.26586 13.6827 11.441C13.6386 11.7421 13.4942 12.0196 13.273 12.2287C13.0518 12.4377 12.7665 12.566 12.4633 12.593L11.452 12.6836C9.15599 12.889 6.84532 12.889 4.54932 12.6836L3.53799 12.593C3.23481 12.566 2.94956 12.4377 2.72831 12.2287C2.50707 12.0196 2.36274 11.7421 2.31866 11.441C2.00063 9.26586 2.00063 7.05607 2.31866 4.88097C2.36274 4.5798 2.50707 4.3023 2.72831 4.09327C2.94956 3.88424 3.23481 3.75589 3.53799 3.72897L4.54932 3.6383Z" fill="white" fill-opacity="0.8"/>
</svg>
