<svg width="17" height="16" viewBox="0 0 17 16" fill="none" xmlns="http://www.w3.org/2000/svg">
<path d="M12.4576 4.23366C11.9642 3.73689 11.3773 3.3427 10.7309 3.07381C10.0844 2.80493 9.39109 2.66666 8.69092 2.66699C5.74426 2.66699 3.36426 5.05366 3.36426 8.00033C3.36426 10.947 5.74426 13.3337 8.69092 13.3337C11.1776 13.3337 13.2509 11.6337 13.8443 9.33366H12.4576C12.183 10.1133 11.6732 10.7886 10.9985 11.2662C10.3238 11.7439 9.51755 12.0004 8.69092 12.0003C6.48426 12.0003 4.69092 10.207 4.69092 8.00033C4.69092 5.79366 6.48426 4.00033 8.69092 4.00033C9.79759 4.00033 10.7843 4.46033 11.5043 5.18699L9.35759 7.33366H14.0243V2.66699L12.4576 4.23366Z" fill="#0588E8"/>
</svg>
