<svg width="30" height="30" viewBox="0 0 30 30" fill="none" xmlns="http://www.w3.org/2000/svg">
<g clip-path="url(#clip0_340_4883)">
<path fill-rule="evenodd" clip-rule="evenodd" d="M14.9022 4.85938C15.941 4.85938 17.0066 4.88611 18.0394 4.92985L19.2593 4.98817L20.427 5.05743L21.5205 5.13154L22.5193 5.20931C23.6031 5.29227 24.6231 5.7548 25.3996 6.51553C26.1761 7.27626 26.6594 8.28645 26.7646 9.3684L26.8132 9.88479L26.9044 10.9905C26.9894 12.1363 27.0526 13.3853 27.0526 14.5797C27.0526 15.7741 26.9894 17.0232 26.9044 18.169L26.8132 19.2746C26.7974 19.452 26.7816 19.6234 26.7646 19.791C26.6594 20.8732 26.1759 21.8835 25.3991 22.6443C24.6223 23.405 23.6021 23.8674 22.5181 23.9501L21.5217 24.0267L20.4282 24.102L19.2593 24.1713L18.0394 24.2296C16.9943 24.275 15.9483 24.2985 14.9022 24.3001C13.856 24.2985 12.8101 24.275 11.7649 24.2296L10.545 24.1713L9.37737 24.102L8.28383 24.0267L7.28506 23.9501C6.20119 23.8672 5.18128 23.4046 4.40477 22.6439C3.62826 21.8832 3.1449 20.873 3.0397 19.791L2.9911 19.2746L2.89997 18.169C2.80707 16.9747 2.75763 15.7775 2.75174 14.5797C2.75174 13.3853 2.81492 12.1363 2.89997 10.9905L2.9911 9.88479C3.0069 9.7074 3.02269 9.53607 3.0397 9.3684C3.14486 8.28664 3.62805 7.2766 4.40431 6.5159C5.18057 5.75519 6.20019 5.29254 7.28385 5.20931L8.2814 5.13154L9.37494 5.05743L10.5438 4.98817L11.7637 4.92985C12.8093 4.88444 13.8556 4.86095 14.9022 4.85938ZM12.4721 11.6332V17.5262C12.4721 18.0875 13.0796 18.4375 13.5656 18.158L18.6688 15.2115C18.7798 15.1476 18.8721 15.0556 18.9362 14.9446C19.0004 14.8337 19.0341 14.7078 19.0341 14.5797C19.0341 14.4516 19.0004 14.3257 18.9362 14.2148C18.8721 14.1039 18.7798 14.0118 18.6688 13.9479L13.5656 11.0026C13.4548 10.9386 13.329 10.9049 13.201 10.905C13.073 10.905 12.9472 10.9387 12.8364 11.0027C12.7256 11.0668 12.6335 11.1589 12.5696 11.2698C12.5056 11.3807 12.472 11.5064 12.4721 11.6345V11.6332Z" fill="#E9E4DB"/>
</g>
<defs>
<clipPath id="clip0_340_4883">
<rect width="29.161" height="29.161" fill="white" transform="translate(0.322052)"/>
</clipPath>
</defs>
</svg>
